<svg fill="none" height="295" viewBox="0 0 278 295" width="278" xmlns="http://www.w3.org/2000/svg"><g fill="#61657f"><path clip-rule="evenodd" d="m89.359 275.18h30.669v.018c75.878 0 137.595-61.726 137.595-137.595 0-75.8686-61.717-137.59411176-137.599-137.603h-.164l-9.086.106678c-61.0851.048893-110.774 49.760022-110.774 110.858322.0006485 23.124 7.23192 45.668 20.6815 64.478 13.4497 18.809 32.4444 32.942 54.3252 40.421l.1289.035v45.058c0 3.772 1.4985 7.39 4.1659 10.057 2.6675 2.667 6.2852 4.166 10.0575 4.166zm21.651-245.653 9.098-.1067c60.166.0444 109.103 48.9866 109.103 109.1877 0 60.201-48.982 109.178-109.183 109.178h-16.481v-27.469h18.379c41.577 0 75.403-33.825 75.403-75.402v-5.512c0-36.421-29.634-66.0544-66.055-66.0544h-41.9194c-3.7723 0-7.3901 1.4986-10.0575 4.166s-4.166 6.2852-4.166 10.0575v75.0599c4.9738 6.103 15.1969 10.552 24.5311 10.806h3.8848v-71.66h27.714c9.979.01 19.547 3.979 26.604 11.035 7.057 7.057 11.027 16.624 11.039 26.604v5.498c-.014 12.461-4.972 24.408-13.785 33.218-8.814 8.81-20.762 13.763-33.224 13.773h-25.0864c-8.2599-.455-16.3236-2.691-23.6377-6.556-27.1046-13.784-44.7728-41.666-44.7728-73.376 0-45.4615 36.9855-82.447 82.4469-82.447z" fill-rule="evenodd"/><path d="m253 246.031c-13.379 0-24.219 10.938-24.219 24.219 0 13.379 10.84 24.219 24.219 24.219 13.281 0 24.219-10.84 24.219-24.219 0-13.281-10.938-24.219-24.219-24.219zm0 43.75c-10.84 0-19.531-8.691-19.531-19.531 0-10.742 8.691-19.531 19.531-19.531 10.742 0 19.531 8.789 19.531 19.531 0 10.84-8.789 19.531-19.531 19.531zm10.742-7.91c-5.176-9.473-4.883-8.984-5.176-9.375 2.344-1.367 3.809-4.101 3.809-7.226 0-5.079-2.93-8.301-9.863-8.301h-7.715c-.684 0-1.172.586-1.172 1.172v24.218c0 .684.488 1.172 1.172 1.172h3.808c.586 0 1.172-.488 1.172-1.172v-8.105h3.125l4.59 8.691c.196.391.684.586 1.074.586h4.102c.977 0 1.465-.879 1.074-1.66zm-10.742-13.183h-3.223v-6.25h2.637c3.125 0 3.809 1.171 3.809 3.124 0 2.051-1.172 3.126-3.223 3.126z"/></g></svg>